<svg width="77" height="108" viewBox="0 0 77 108" fill="none" xmlns="http://www.w3.org/2000/svg">
<path d="M73.8552 58.5273C71.119 55.1818 66.6351 53.3546 60.8643 53.2108C60.7053 51.8343 59.5373 50.7651 58.1179 50.7651H2.76631C1.23848 50.7651 0 52.0038 0 53.5314V85.6206C0 91.9955 3.55747 97.7052 9.28401 100.521C9.00627 101.184 8.86547 101.885 8.86547 102.606C8.86547 105.58 11.2852 108 14.2595 108H46.625C49.5994 108 52.019 105.58 52.019 102.606C52.019 101.885 51.8782 101.183 51.6002 100.521C56.4994 98.1118 59.8087 93.5845 60.6635 88.3351C65.3969 87.287 69.4086 84.5719 72.4253 80.3283C75.2262 76.388 76.1568 72.5152 76.2541 72.0861L76.2735 71.994C77.4046 66.4027 76.5908 61.8718 73.8552 58.5273ZM68.1527 70.2811C68.0819 70.5577 67.4011 73.0723 65.6608 75.5205C64.3147 77.4146 62.7332 78.7609 60.8842 79.5776V61.51C62.9681 61.5863 65.9911 62.0209 67.4313 63.7814C68.5068 65.0957 68.7491 67.283 68.1527 70.2811Z" fill="black"/>
<path d="M18.2164 19.7097C22.7094 20.2314 27.2896 20.3017 31.1777 20.3017C32.4419 20.3017 33.7064 20.2939 34.97 20.2859C36.9346 20.2737 38.8968 20.2615 40.8553 20.279L41.1494 20.2801C41.6484 20.2801 42.2313 20.271 42.8385 20.2613C43.4692 20.251 44.127 20.2405 44.7442 20.2397C43.535 20.4773 42.0648 20.7398 40.7524 20.9739C38.1089 21.4458 35.3755 21.9338 33.4098 22.3991L33.0402 22.4862C29.223 23.3861 23.4547 24.746 21.5927 28.872C20.8599 30.4612 20.9133 32.2762 21.739 33.851C22.6101 35.5128 24.2199 36.6954 26.0453 37.0146C26.6835 37.1261 27.3696 37.2326 28.1154 37.2326C29.3295 37.2326 30.5472 37.1228 31.7105 36.8937C37.7283 35.7111 37.78 37.2724 37.7825 37.4353C37.7991 38.4583 35.809 40.2285 34.9592 40.9845C34.7769 41.1466 34.6234 41.2833 34.5127 41.3884C34.2911 41.5986 34.0303 41.8313 33.7484 42.0827C32.0255 43.6194 29.6662 45.724 29.9522 48.0259C29.9868 48.3036 30.223 48.5108 30.501 48.5108C30.5063 48.5108 30.5113 48.5108 30.5162 48.5105C30.8012 48.5031 31.0335 48.2801 31.0532 47.996C31.119 47.0491 32.0435 46.2195 32.9038 45.5168C33.721 44.8526 34.6076 44.2336 35.4649 43.6352C35.8226 43.386 36.18 43.1362 36.5343 42.8825L36.5617 42.8631C38.1313 41.7394 40.7582 39.86 41.1145 37.6074C41.2578 36.7037 41.0271 35.8348 40.4293 35.0245C38.7673 32.7719 35.7733 32.5835 33.0983 32.5835L32.8837 32.5838C32.4095 32.5849 31.9326 32.5965 31.4546 32.6079C30.96 32.62 30.4645 32.6322 29.9696 32.6322C29.1168 32.6322 28.4288 32.5954 27.8047 32.5135C26.5549 32.3495 26.1314 31.6839 26.4238 31.186C27.2932 29.7057 31.6739 28.3973 39.5767 27.3721C40.0066 27.3162 40.3436 27.2725 40.561 27.2396C41.0456 27.1651 41.532 27.0932 42.0191 27.0207C44.8181 26.6052 47.7127 26.1751 50.4785 25.3554C55.41 23.8934 56.3538 21.4101 56.246 19.526C56.2457 19.5135 56.2451 19.5008 56.244 19.4878L56.2462 19.4875L56.2402 19.4289C56.2374 19.3949 56.2341 19.3592 56.2299 19.3213C56.2296 19.3182 56.2294 19.3155 56.2288 19.3122C56.2288 19.3116 56.2288 19.311 56.2288 19.3105C56.2288 19.3097 56.2288 19.3088 56.2285 19.3083C56.0045 17.3448 54.6415 15.7408 52.4882 14.9082C49.3689 13.7012 45.7096 13.6877 42.4808 13.6758L41.6368 13.6719C38.8749 13.6534 36.0641 13.7143 33.3487 13.7723C30.9719 13.8232 28.514 13.8755 26.1004 13.8755C23.689 13.8755 21.5659 13.8227 19.6101 13.7134C18.1022 13.6293 16.3187 13.499 14.5234 13.1687C13.1712 12.9198 11.4887 12.6097 10.419 11.7048C9.45274 10.8874 10.458 9.084 11.1244 8.24498C13.1438 5.70275 16.6745 4.64933 19.8618 3.95416C22.7863 3.31625 25.9886 2.9771 29.9403 2.88609C32.4789 2.828 34.954 2.89079 37.3056 3.07226C37.32 3.07337 37.3344 3.07392 37.3487 3.07392C37.3504 3.07392 37.3523 3.07475 37.354 3.07392C37.6594 3.07392 37.9073 2.82606 37.9073 2.52066C37.9073 2.25316 37.7175 2.03019 37.4652 1.97846C32.9448 0.683831 28.1394 0 23.5651 0C22.1531 0 20.7454 0.064455 19.3813 0.191982C14.1272 0.682725 7.39018 2.56105 5.13232 8.72328C4.36716 10.8113 4.47643 12.6769 5.45681 14.2689C7.62808 17.7943 13.5939 19.1736 18.2164 19.7097Z" fill="black"/>
</svg>
